PathFileType	3	(X/Y/Z)	RCH0000002 BBF 06.c3d
DataRate	CameraRate	NumFrames	NumMarkers	Units	OrigDataRate	OrigDataStartFrame	OrigNumFrames
100.0	100.0	15	23	mm	100.0	322	380
Frame#	Time	LASI			RASI			LPAT			LKNE			LANK			LMED			LTOE			RPAT			RKNE			RANK			RTOE			RMED			RHEE			RPSI			T2			T10			LPSI			LHEE			MAN			RTHI			LTHI			RTIB			LTIB			
		X1	Y1	Z1	X2	Y2	Z2	X3	Y3	Z3	X4	Y4	Z4	X5	Y5	Z5	X6	Y6	Z6	X7	Y7	Z7	X8	Y8	Z8	X9	Y9	Z9	X10	Y10	Z10	X11	Y11	Z11	X12	Y12	Z12	X13	Y13	Z13	X14	Y14	Z14	X15	Y15	Z15	X16	Y16	Z16	X17	Y17	Z17	X18	Y18	Z18	X19	Y19	Z19	X20	Y20	Z20	X21	Y21	Z21	X22	Y22	Z22	X23	Y23	Z23	

322	3.210	-982.86144	93.49349	624.01909	-946.39929	-76.26429	652.03476	-973.55174	53.19818	342.41366	-1034.73038	103.82755	316.45981	-1234.39290	106.82962	137.88036	-1219.76494	37.56753	140.12670	-1199.33812	76.39796	98.07795	-931.94024	-26.97774	375.36118	-965.45859	-88.27123	339.70613	-1017.82180	-108.92675	71.56991	-981.78335	-64.36741	66.97907	-1043.14276	-43.12273	82.20900	-1068.72097	-88.49339	101.69343	-1065.51363	-39.65314	700.78221	-1092.47856	-0.51684	961.76140	-1063.04772	8.68296	776.93167	-1079.55909	28.73160	687.57828	-1242.31403	63.38544	180.86788	-959.80425	22.92036	945.77526	-940.76368	-155.45626	450.04683	-1040.84185	169.29431	443.65460	-976.52488	-161.90437	227.47289	-1119.69763	167.30100	245.95193	
323	3.220	-973.05503	91.55555	625.07493	-938.53014	-78.54323	654.54802	-956.01862	51.85601	346.10504	-1016.81515	102.46003	318.66486	-1215.83176	104.54539	139.78262	-1199.85415	35.44121	141.19562	-1179.70330	75.37640	100.20320	-931.65087	-30.92395	375.97825	-965.96889	-92.02493	341.10293	-1017.54457	-109.61648	72.06435	-981.42494	-65.01287	67.36648	-1042.73824	-43.96297	83.30172	-1068.55287	-89.35785	102.40829	-1056.97525	-39.97618	703.43107	-1084.29318	0.11029	963.09820	-1054.24226	9.08167	778.56105	-1070.38613	28.44851	689.54611	-1223.24072	60.29299	181.88472	-951.56734	23.36696	947.58296	-938.11916	-158.84579	450.94475	-1026.29757	167.86642	445.66581	-977.64052	-164.67721	227.70485	-1102.49518	165.32864	248.92715	
324	3.230	-963.45593	89.68854	626.40224	-930.88750	-80.76847	656.92503	-938.67359	50.90895	350.43718	-999.13512	101.30511	321.41629	-1196.46277	101.99434	141.03610	-1178.90437	33.13119	141.78645	-1158.90751	74.23429	102.01652	-931.37961	-34.59873	376.62717	-966.49097	-95.50181	342.51306	-1017.21180	-110.10615	72.65022	-980.95025	-65.50626	67.77118	-1042.17973	-44.58993	84.42167	-1068.30778	-89.93605	103.19092	-1048.64147	-40.37576	705.92968	-1076.14903	0.73503	964.58806	-1045.66236	9.27255	780.28398	-1061.41368	28.08433	691.56162	-1203.47779	56.87493	182.22405	-943.41048	23.87181	949.38856	-935.68042	-162.00302	451.79809	-1012.11595	166.69279	448.08867	-978.79905	-167.22461	228.02568	-1085.40639	163.36324	251.96555	
325	3.240	-954.04512	87.91702	627.92605	-923.45379	-82.91048	659.12508	-921.51827	50.35245	355.29321	-981.66900	100.36448	324.60566	-1176.31299	99.24601	141.63636	-1157.03900	30.69341	141.93293	-1137.07094	72.96335	103.49058	-931.02308	-37.96432	377.26898	-966.92866	-98.65265	343.89369	-1016.84858	-110.40505	73.31777	-980.39422	-65.85582	68.18705	-1041.49592	-45.00383	85.56384	-1067.99426	-90.23621	104.04655	-1040.50532	-40.81073	708.22237	-1068.02909	1.30352	966.17856	-1037.29737	9.26818	782.03706	-1052.63523	27.68355	693.54346	-1183.07654	53.25533	181.93207	-935.31765	24.40620	951.14089	-933.38564	-164.88889	452.57873	-998.27155	165.78112	450.80161	-979.93470	-169.51075	228.41555	-1068.34286	161.43965	254.92650	
326	3.250	-944.80074	86.25893	629.56605	-916.21203	-84.94562	661.11832	-904.55093	50.14834	360.55007	-964.37985	99.62463	328.11862	-1155.40856	96.39340	141.61049	-1134.38748	28.20064	141.68949	-1114.31780	71.57555	104.62172	-930.49346	-40.99959	377.87185	-967.19859	-101.44785	345.21113	-1016.46837	-110.53546	74.05371	-979.78522	-66.07793	68.60872	-1040.71369	-45.21989	86.72285	-1067.61467	-90.28896	104.97556	-1032.56008	-41.23736	710.26335	-1059.91730	1.77083	967.81645	-1029.13618	9.09351	783.75930	-1044.04297	27.29255	695.41319	-1162.08876	49.57873	181.07758	-927.27228	24.94442	952.79008	-931.17303	-167.47817	453.26920	-984.71647	165.12240	453.67989	-980.98002	-171.51507	228.85744	-1051.19550	159.59462	257.68695	
327	3.260	-935.69872	84.72493	631.24176	-909.14530	-86.85674	662.88585	-887.77178	50.22823	366.08521	-947.22377	99.05786	331.84309	-1133.77779	93.54660	141.01287	-1111.07930	25.73770	141.12270	-1090.77068	70.10383	105.42767	-929.72189	-43.69702	378.41069	-967.23286	-103.87580	346.44039	-1016.07558	-110.52702	74.84183	-979.14455	-66.19346	69.03098	-1039.85682	-45.26342	87.89188	-1067.16733	-90.13898	105.97317	-1024.79799	-41.61310	712.01771	-1051.79921	2.10358	969.44997	-1021.16712	8.78320	785.39490	-1035.62691	26.95561	697.09936	-1140.56723	45.99821	179.74260	-919.25789	25.46489	954.28969	-928.98226	-169.75815	453.86060	-971.38785	164.69142	456.60515	-981.87115	-173.23057	229.33644	-1033.84880	157.86509	260.15283	
328	3.270	-926.71328	83.31850	632.87726	-902.23595	-88.63343	664.41910	-871.18763	50.49992	371.78146	-930.15887	98.62464	335.67546	-1111.45325	90.82428	139.91803	-1087.23866	23.39525	140.30190	-1066.54591	68.59967	105.94283	-928.65990	-46.05973	378.86686	-966.98049	-105.94042	347.56463	-1015.66968	-110.41068	75.66469	-978.48758	-66.22403	69.44880	-1038.94581	-45.16403	89.06247	-1066.64981	-89.83521	107.03052	-1017.20889	-41.89984	713.46188	-1043.66250	2.28161	971.03083	-1013.37749	8.37849	786.89541	-1027.37392	26.71149	698.54098	-1118.56552	42.66331	178.01214	-911.25858	25.95112	955.59870	-926.75645	-171.72718	454.35034	-958.21620	164.44881	459.47304	-982.55368	-174.66140	229.83919	-1016.19459	156.28585	262.26500	
329	3.280	-917.81722	82.03638	634.40514	-895.46471	-90.27170	665.71862	-854.81524	50.85574	377.52978	-913.15352	98.27697	339.52445	-1088.47289	88.34420	138.41152	-1062.98060	21.26280	139.29035	-1041.75051	67.12773	106.21182	-927.27876	-48.09893	379.22776	-966.40762	-107.65819	348.57447	-1015.24934	-110.21355	76.50548	-977.82532	-66.18878	69.85764	-1037.99808	-44.95036	90.22525	-1066.06181	-89.42219	108.13642	-1009.77879	-42.06657	714.58361	-1035.49725	2.29875	972.51574	-1005.75275	7.92392	788.22112	-1019.26667	26.59083	699.69025	-1096.13754	39.70894	175.96446	-903.25951	26.39220	956.68310	-924.44400	-173.39320	454.74011	-945.13346	164.34435	462.19836	-982.98770	-175.82020	230.35362	-998.14402	154.88680	263.99900	
330	3.290	-908.98211	80.86964	635.76924	-888.80974	-91.77336	666.79249	-838.68326	51.18194	383.23011	-896.19307	97.96225	343.31236	-1064.88066	86.21342	136.58022	-1038.40889	19.42156	138.13797	-1016.48112	65.75831	106.28226	-925.56707	-49.83195	379.48626	-965.49614	-109.05505	349.46715	-1014.81540	-109.95567	77.34998	-977.16602	-66.10236	70.25402	-1037.02825	-44.64628	91.37112	-1065.40711	-88.93394	109.27948	-1002.48868	-42.09113	715.38140	-1027.29612	2.16254	973.86741	-998.27556	7.46410	789.34186	-1011.28281	26.61461	700.51422	-1073.33706	37.24629	173.66312	-895.24720	26.78298	957.51716	-922.00004	-174.77220	455.03428	-932.08003	164.32111	464.71737	-983.15056	-176.72549	230.86908	-979.63661	153.69042	265.35951	
331	3.300	-900.17841	79.80499	636.92630	-882.24593	-93.14505	667.65439	-822.83241	51.36787	388.79056	-879.28440	97.62732	346.97399	-1040.72720	84.51941	134.50322	-1013.61602	17.93772	136.87663	-990.82529	64.55864	106.19773	-923.52703	-51.28073	379.64013	-964.24106	-110.16348	350.24564	-1014.37197	-109.64903	78.18787	-976.51614	-65.97436	70.63591	-1036.04814	-44.26921	92.49264	-1064.69363	-88.39147	110.44998	-995.31377	-41.96098	715.86343	-1019.05410	1.89306	975.05504	-990.92486	7.04092	790.23691	-1003.39442	26.79360	700.99529	-1050.21809	35.35632	171.15173	-887.20962	27.12385	958.08416	-919.38691	-175.88672	455.23879	-919.01007	164.31997	466.98731	-983.03674	-177.39962	231.37667	-960.64612	152.70962	266.37110	
332	3.310	-891.37558	78.82629	637.84631	-875.74425	-94.39711	668.32169	-807.31399	51.31440	394.12558	-862.45801	97.22217	350.45380	-1016.07133	83.32271	132.24470	-988.68556	16.85675	135.51821	-964.86514	63.58426	105.99177	-921.16972	-52.47086	379.69129	-962.64673	-111.01997	350.91756	-1013.92561	-109.29890	79.01354	-975.88053	-65.80999	71.00295	-1035.06636	-43.83051	93.58523	-1063.93206	-87.80389	111.64135	-988.22321	-41.67315	716.04602	-1010.76827	1.52095	976.05440	-983.67496	6.69114	790.89447	-995.56793	27.12876	701.13062	-1026.83638	34.08578	168.45206	-879.13625	27.42024	958.37666	-916.57377	-176.76438	455.36049	-905.89490	164.28397	468.98359	-982.65484	-177.86722	231.86984	-941.18307	151.94624	267.06723	
333	3.320	-882.54235	77.91617	638.51191	-869.27147	-95.54242	668.81350	-792.18683	50.94062	399.15371	-845.76737	96.70301	353.70200	-990.98294	82.65182	129.84942	-963.69664	16.19915	134.05552	-938.68319	62.87158	105.68366	-918.51009	-53.43065	379.64488	-960.72243	-111.66265	351.49398	-1013.48303	-108.90664	79.82621	-975.26190	-65.61183	71.35652	-1034.08761	-43.33753	94.64807	-1063.13304	-87.17218	112.85103	-981.18027	-41.23339	715.95178	-1002.43730	1.08498	976.84747	-976.49503	6.44479	791.31057	-987.76459	27.61248	700.93062	-1003.25256	33.44571	165.56542	-871.01790	27.68190	958.39630	-913.53539	-177.43633	455.40675	-892.72433	164.16210	470.69524	-982.02237	-178.15428	232.34492	-921.29462	151.39037	267.47986	
334	3.330	-873.64707	77.05748	638.91691	-862.79006	-96.59519	669.14891	-777.51285	50.18852	403.79563	-829.28593	96.03450	356.67051	-965.54770	82.50056	127.34132	-938.73020	15.95789	132.46556	-912.36988	62.43260	105.27636	-915.56213	-54.19044	379.50834	-958.47787	-112.12947	351.98807	-1013.04808	-108.47321	80.62942	-974.65979	-65.38194	71.69937	-1033.11178	-42.79647	95.68445	-1062.30397	-86.49443	114.08080	-974.14304	-40.65470	715.60764	-994.06091	0.62915	977.42191	-969.34883	6.32400	791.48774	-979.94139	28.23029	700.41665	-979.53691	33.41200	162.47708	-862.84657	27.92195	958.15315	-910.25040	-177.93579	455.38517	-879.50607	163.91219	472.11941	-981.15924	-178.28767	232.80140	-901.06259	151.02029	267.63117	
335	3.340	-864.65834	76.23464	639.06435	-856.25838	-97.56979	669.34550	-763.35210	49.02556	407.97313	-813.10192	95.19119	359.30974	-939.87329	82.82813	124.72518	-913.87643	16.09791	130.71466	-886.03197	62.25241	104.75676	-912.33468	-54.78169	379.29033	-955.91915	-112.45659	352.41365	-1012.61880	-108.00249	81.43014	-974.06941	-65.12391	72.03519	-1032.13312	-42.21541	96.70165	-1061.44581	-85.77121	115.33650	-967.06549	-39.95572	715.04289	-985.63930	0.19973	977.77025	-962.19485	6.34253	791.43352	-972.05247	28.96274	699.61839	-955.77543	33.92757	159.16273	-854.61516	28.15587	957.66478	-906.69953	-178.29664	455.30335	-866.26361	163.50280	473.25596	-980.08132	-178.29483	233.24194	-880.60049	150.80303	267.52880	
336	3.350	-855.54579	75.43477	638.96446	-849.63122	-98.47975	669.41813	-749.75739	47.44504	411.60945	-797.31177	94.15814	361.56684	-914.09648	83.56173	121.99078	-889.24245	16.55778	128.76449	-859.80069	62.28991	104.09810	-908.82828	-55.23611	378.99956	-953.04572	-112.67706	352.78374	-1012.18520	-107.50360	82.23770	-973.48062	-64.84445	72.36796	-1031.13969	-41.60664	97.71031	-1060.55079	-85.00972	116.62746	-959.89880	-39.15901	714.28745	-977.17259	-0.15759	977.88915	-954.98697	6.50572	791.15906	-964.05087	29.78733	698.57121	-932.07636	34.90598	155.59619	-846.31726	28.40045	956.95501	-902.86405	-178.55205	455.16850	-853.03279	162.91411	474.10291	-978.79504	-178.20353	233.67185	-860.05016	150.69568	267.16480	
